<svg fill="none" height="27" viewBox="0 0 23 27" width="23" xmlns="http://www.w3.org/2000/svg"><path d="m11.3199.999969c-4.19537 0-7.62923 3.432441-7.62923 7.629221v7.18081c0 4.1953 3.43245 7.6292 7.62923 7.6292 4.1968 0 7.6292-3.4325 7.6292-7.6292v-7.18081c.0014-4.19396-3.4338-7.629221-7.6292-7.629221zm0 2.693491c2.7217 0 4.9357 2.21403 4.9357 4.93573v7.18081c0 2.7217-2.214 4.9357-4.9357 4.9357-2.72171 0-4.93573-2.214-4.93573-4.9357v-7.18081c0-2.7217 2.21543-4.93573 4.93573-4.93573z" fill="#e9f3f4" stroke="#000" stroke-linecap="round" stroke-miterlimit="10" stroke-width="1.5"/><path d="m12.0617 25.6842h-1.4822c-5.2685 0-9.5795-4.311-9.5795-9.5795v-2.8035c0-1.829 1.49623-3.32384 3.32386-3.32384h13.99204c1.8291 0 3.3239 1.49624 3.3239 3.32384v2.8007c.0014 5.2685-4.3096 9.5823-9.5781 9.5823z" fill="#ffd783" stroke="#000" stroke-miterlimit="10" stroke-width="1.5"/><g fill="#000"><path d="m13.565 15.81c0 1.2395-1.0054 2.245-2.245 2.245s-2.24505-1.0055-2.24505-2.245c0-1.2396 1.00545-2.2451 2.24505-2.2451s2.245 1.0055 2.245 2.2451z"/><path d="m11.3199 20.7457c-.4935 0-.8983-.4047-.8983-.8983v-2.6935c0-.4936.4048-.8983.8983-.8983.4936 0 .8983.4047.8983.8983v2.6935c0 .4964-.4047.8983-.8983.8983z"/></g></svg>