<svg height='100px' width='100px'  fill="#ba0202" xmlns="http://www.w3.org/2000/svg" xmlns:xlink="http://www.w3.org/1999/xlink" viewBox="0 0 20 20" version="1.1" x="0px" y="0px"><title>ic_new_question_20px</title><desc>Created with Sketch.</desc><g stroke="none" stroke-width="1" fill="none" fill-rule="evenodd"><g fill="#ba0202"><path d="M9,9 L5.99539757,9 C5.4556644,9 5,9.44771525 5,10 C5,10.5561352 5.44565467,11 5.99539757,11 L9,11 L9,14.0046024 C9,14.5443356 9.44771525,15 10,15 C10.5561352,15 11,14.5543453 11,14.0046024 L11,11 L14.0046024,11 C14.5443356,11 15,10.5522847 15,10 C15,9.44386482 14.5543453,9 14.0046024,9 L11,9 L11,5.99539757 C11,5.4556644 10.5522847,5 10,5 C9.44386482,5 9,5.44565467 9,5.99539757 L9,9 Z M10,20 C4.4771525,20 0,15.5228475 0,10 C0,4.4771525 4.4771525,0 10,0 C15.5228475,0 20,4.4771525 20,10 C20,15.5228475 15.5228475,20 10,20 Z"></path></g></g></svg>