<svg fill="none" height="14" viewBox="0 0 14 14" width="14" xmlns="http://www.w3.org/2000/svg"><g fill="#fff"><path d="m3.99522 3.13687c.14532-.11303.35474-.08685.46777.05847l2.53688 3.26171 2.53689-3.26171c.11302-.14532.32245-.1715.46774-.05847.1453.11302.1715.32244.0585.46776l-2.64084 3.39536 2.64084 3.39541c.113.1453.0868.3547-.0585.4677-.14529.113-.35472.0869-.46774-.0585l-2.53689-3.26167-2.53688 3.26167c-.11303.1454-.32245.1715-.46777.0585-.14531-.113-.17149-.3224-.05847-.4677l2.64084-3.39541-2.64084-3.39536c-.11302-.14532-.08684-.35474.05847-.46776z"/><path clip-rule="evenodd" d="m0 7c0-3.86599 3.13401-7 7-7 3.866 0 7 3.134 7 7s-3.134 7-7 7-7-3.134-7-7zm7-6.333333c-3.4978 0-6.333333 2.835533-6.333333 6.333333s2.835533 6.3333 6.333333 6.3333 6.3333-2.8355 6.3333-6.3333-2.8355-6.333333-6.3333-6.333333z" fill-rule="evenodd"/></g></svg>