<svg enable-background="new 0 0 2000 2000" viewBox="0 0 2000 2000" xmlns="http://www.w3.org/2000/svg"><path clip-rule="evenodd" d="m1547.3 761.2c0 22-17.8 39.8-39.8 39.8s-39.8-17.8-39.8-39.8 17.8-39.8 39.8-39.8c22 0 39.7 17.8 39.8 39.8m-37.3-84.6c-48.1 0-87.1 38.9-87.1 87s38.9 87.1 87 87.1 87.1-38.9 87.1-87c0 0 0 0 0-.1-.1-47.9-39-86.9-87-87m-112.1 762.8c18.7-17.1 20-46.2 2.9-64.9-17-18.6-45.8-20-64.6-3.2-91.4 83-210.5 128.9-334 128.8-274.3 0-497.5-223.2-497.5-497.7s223.2-497.7 497.5-497.7c123.5-.1 242.6 45.8 334 128.8 18.6 17.3 47.6 16.2 64.9-2.3 17.3-18.6 16.2-47.6-2.3-64.9-.3-.3-.6-.6-.9-.8-108.3-98.3-249.4-152.8-395.6-152.6-324.9 0-589.3 264.5-589.3 589.6s264.3 589.5 589.2 589.5c146.3.1 287.4-54.3 395.7-152.6m-395.4-1344.9c-500.7 0-908 407.3-908 908s407.3 908 908 908 908-407.3 908-908-407.3-908-908-908m-2.5 1905.5c-551.4 0-1000-448.6-1000-1000s448.6-1000 1000-1000 1000 448.6 1000 1000-448.6 1000-1000 1000" fill="#4054a8" fill-rule="evenodd"/></svg>