<svg xmlns="http://www.w3.org/2000/svg" xmlns:xlink="http://www.w3.org/1999/xlink" viewBox="0 0 664.12 663.76"><defs><style>.cls-1{fill:#15cecb;}.cls-2{fill:url(#radial-gradient);}.cls-3{fill:url(#radial-gradient-2);}.cls-4{fill:url(#linear-gradient);}.cls-5{fill:url(#linear-gradient-2);}</style><radialGradient id="radial-gradient" cx="449.85" cy="508.58" fy="491.01298536678354" r="481.42" gradientTransform="translate(0 9.94) scale(1 0.98)" gradientUnits="userSpaceOnUse"><stop offset="0.07" stop-color="#00d1a9"/><stop offset="0.17" stop-color="#00caa3"/><stop offset="0.3" stop-color="#00b693"/><stop offset="0.47" stop-color="#009679"/><stop offset="0.65" stop-color="#006955"/><stop offset="0.85" stop-color="#003027"/><stop offset="1"/></radialGradient><radialGradient id="radial-gradient-2" cx="713.38" cy="327.06" fx="763.4252594498588" fy="251.80695916653792" r="352.82" gradientUnits="userSpaceOnUse"><stop offset="0.17" stop-color="#f2f2f2"/><stop offset="0.3" stop-color="#c1ede0"/><stop offset="0.42" stop-color="#98e8d0"/><stop offset="0.54" stop-color="#78e5c4"/><stop offset="0.66" stop-color="#61e2bc"/><stop offset="0.77" stop-color="#54e1b7"/><stop offset="0.87" stop-color="#4fe0b5"/></radialGradient><linearGradient id="linear-gradient" x1="210.09" y1="407.71" x2="781.01" y2="286.78" gradientUnits="userSpaceOnUse"><stop offset="0.12" stop-color="#34518c"/><stop offset="0.37" stop-color="#34518f"/><stop offset="0.56" stop-color="#365299"/><stop offset="0.74" stop-color="#3852aa"/><stop offset="0.91" stop-color="#3c53c2"/><stop offset="1" stop-color="#3e54d1"/></linearGradient><linearGradient id="linear-gradient-2" x1="274.8" y1="768.25" x2="896.6" y2="698.84" gradientUnits="userSpaceOnUse"><stop offset="0" stop-color="#3e54d1"/><stop offset="0.07" stop-color="#3d54c9"/><stop offset="0.4" stop-color="#3852a8"/><stop offset="0.67" stop-color="#355193"/><stop offset="0.85" stop-color="#34518c"/></linearGradient></defs><g id="Layer_3" data-name="Layer 3"><circle class="cls-1" cx="332.88" cy="331.89" r="199.32"/><path class="cls-2" d="M346.74,584.53c-4.05-20.24-15.12-65,24.39-85.2,35.3-18,79.82.2,94.1,36.42,10.2,25.9,38.72,73.49,66.94,101.71,22.26,22.26,106.21,74.44,179.06,6.65,0,0-38.93,71.93-127.73,90.16C539,743.41,478,741.78,419.57,697.4,362.93,654.34,348.41,592.88,346.74,584.53Z" transform="translate(-208.63 -207.61)"/><path class="cls-3" d="M736.47,493.71c4,20.24,15.11,65.05-24.39,85.2-35.31,18-79.83-.21-94.1-36.42-10.21-25.9-38.72-73.49-67-101.71-22.26-22.26-105.89-74.47-178.74-6.68,0,0,40.52-72.36,127.42-90.13,44.51-9.11,105.54-7.51,163.93,36.87C720.28,423.9,734.8,485.36,736.47,493.71Z" transform="translate(-208.63 -207.61)"/></g><g id="Layer_2" data-name="Layer 2"><path class="cls-4" d="M208.63,512.18s70.82-140.64,164.92-130.52S503.06,426.18,583,426.18s111.3-27.32,67.79-46.54-68.8-6.08-92.07-19.23c-11-6.2-2.4-16.93,11.13-19.22a132.35,132.35,0,0,1,23.42-1.36,71.35,71.35,0,0,1,15.12,2c20.09,4.85,79.67,21.29,144.6,59.09,40,23.27,60.85,19.73,71.74,10.37,10.35-8.9,12.47-24.13,5.58-35.91-17.54-30-72.76-111.52-172.46-147.48-123.41-44.51-232.23-5.81-282,22.39S225.83,354.34,208.63,512.18Z" transform="translate(-208.63 -207.61)"/><path class="cls-5" d="M872.74,566.8S801.92,707.44,707.82,697.32,578.31,652.8,498.38,652.8s-111.3,27.32-67.79,46.54,68.8,6.08,92.07,19.23c11,6.2,2.4,16.93-11.13,19.22a132.35,132.35,0,0,1-23.42,1.36,71.35,71.35,0,0,1-15.12-2c-20.09-4.85-79.67-21.29-144.6-59.09-40-23.27-60.85-19.73-71.74-10.37-10.35,8.9-12.47,24.13-5.58,35.91,17.54,30,72.76,111.52,172.46,147.48,123.41,44.51,232.23,5.81,282-22.39S855.54,724.64,872.74,566.8Z" transform="translate(-208.63 -207.61)"/></g></svg>