<svg width="40" height="40" viewBox="0 0 40 40" fill="none" xmlns="http://www.w3.org/2000/svg">
    <path d="M40 20C40 31.0456 31.0456 40 20 40C8.95437 40 0 31.0456 0 20C0 8.95437 8.95437 0 20 0C31.0456 0 40 8.95437 40 20Z"
          fill="#77D563"/>
    <path d="M12.7115 24.1771C12.6332 24.0974 12.5049 24.0968 12.426 24.1757L9.11182 27.4884L9.32619 28.5056C9.66244 30.2559 11.3698 31.4663 13.1203 31.1301L18.1984 30.1543C18.336 30.1279 18.3888 29.9588 18.2906 29.8588L12.7115 24.1771Z"
          fill="white"/>
    <path d="M11.7206 23.4184C11.8037 23.3354 11.8045 23.201 11.7222 23.1173L7.95186 19.2779C7.80357 19.127 7.54967 19.2602 7.58967 19.4681L8.81451 25.8432C8.84686 26.0113 9.05389 26.0751 9.17514 25.9543L11.7206 23.4184Z"
          fill="white"/>
    <path d="M17.6791 17.1184C17.7787 17.2196 17.9417 17.2204 18.0423 17.1201L23.9758 11.2088C24.1158 11.0693 23.9906 10.8326 23.7964 10.8699L13.8514 12.7807C13.6942 12.8108 13.6339 13.0041 13.7462 13.1183L17.6791 17.1184Z"
          fill="white"/>
    <path d="M29.1396 18.2572L32.9549 22.0961C33.0799 22.2218 33.2922 22.1101 33.2594 21.9359L32.041 15.4594C32.0143 15.3176 31.84 15.2633 31.7375 15.3647L29.1411 17.9292C29.0499 18.0192 29.0493 18.1662 29.1396 18.2572Z"
          fill="white"/>
    <path d="M23.9945 13.0033L28.0766 17.1789C28.1741 17.2786 28.3342 17.28 28.4334 17.1818L31.7361 13.9128L31.5278 12.6733C31.1914 10.923 29.5414 9.76597 27.7911 10.1024L26.3078 10.3703L23.9978 12.6482C23.8992 12.7455 23.8976 12.9043 23.9945 13.0033Z"
          fill="white"/>
    <path d="M12.7572 22.3018L16.9178 18.2365C17.0275 18.1293 17.0293 17.9535 16.9218 17.8443L12.2824 13.1257L9.75598 13.5673C8.1041 13.8846 6.98144 15.3357 7.14285 16.979L12.3661 22.2978C12.4732 22.4067 12.648 22.4084 12.7572 22.3018Z"
          fill="white"/>
    <path d="M23.18 22.4522L27.4182 18.2497C27.4895 18.179 27.4901 18.064 27.4196 17.9926L23.1961 13.707C23.1251 13.6351 23.0092 13.6347 22.9378 13.7062L18.7228 17.9212C18.6522 17.9919 18.6515 18.1062 18.7217 18.1775L22.9221 22.4504C22.9928 22.5225 23.1084 22.5231 23.18 22.4522Z"
          fill="white"/>
    <path d="M23.1758 24.198C23.0967 24.117 22.9669 24.1162 22.8867 24.1961L18.6622 28.4097C18.5828 28.489 18.5826 28.6176 18.6619 28.6972L19.78 29.8189L26.88 28.4522C27.0416 28.4211 27.1037 28.2228 26.9887 28.105L23.1758 24.198Z"
          fill="white"/>
    <path d="M33.7039 24.3751L28.4236 19.0164C28.3325 18.9239 28.1836 18.9236 28.092 19.0156L23.9566 23.1725C23.8664 23.2631 23.866 23.4095 23.9556 23.5007L28.4985 28.1221L31.1553 27.6115C32.7261 27.3098 33.7391 25.9253 33.7039 24.3751Z"
          fill="white"/>
    <path d="M17.8007 22.1182C17.1487 22.1182 16.6201 22.6466 16.6201 23.2986C16.6201 23.9507 17.1487 24.4793 17.8007 24.4793C18.4528 24.4793 18.9812 23.9507 18.9812 23.2986C18.9812 22.6466 18.4528 22.1182 17.8007 22.1182Z"
          fill="white"/>
    <path d="M14.4121 12.0603L15.3937 11.8459C15.5033 11.822 15.5843 11.7287 15.5926 11.6168L15.5785 11.169C15.6051 10.8151 15.7844 10.4517 16.0143 10.1814C16.2843 9.86371 16.5988 9.61496 16.9976 9.53449L19.3704 9.0484C19.9055 8.94043 20.671 9.1898 21.0877 9.64121C21.3572 9.94074 21.5058 10.2548 21.5769 10.4392C21.613 10.5326 21.7097 10.5876 21.8083 10.5696L22.7705 10.3939C22.8855 10.3728 22.9613 10.2607 22.9357 10.1465C22.8788 9.89308 22.7048 9.41652 22.1757 8.73839C21.6085 7.97449 20.1843 7.49183 19.1516 7.70027L16.8149 8.17183C15.6522 8.40652 14.6179 9.25918 14.3401 10.4514C14.1843 10.9268 14.1794 11.5592 14.1899 11.8876C14.1937 12.002 14.3002 12.0848 14.4121 12.0603Z"
          fill="white"/>
</svg>
