<svg xmlns="http://www.w3.org/2000/svg" xmlns:xlink="http://www.w3.org/1999/xlink" width="410" height="410" viewBox="0 0 410 410"><defs><linearGradient id="a" x1="0.5" y1="1.006" x2="0.5" y2="-0.424" gradientUnits="objectBoundingBox"><stop offset="0" stop-color="#00a7c3"/><stop offset="1" stop-color="#87ebf4"/></linearGradient><linearGradient id="b" x1="0.5" y1="1.004" x2="0.5" y2="-0.002" xlink:href="#a"/><linearGradient id="c" x1="0.5" y1="1.006" x2="0.5" y2="-0.439" xlink:href="#a"/><linearGradient id="d" x1="0.5" y1="1.427" x2="0.5" y2="-0.003" xlink:href="#a"/><clipPath id="f"><rect width="410" height="410"/></clipPath></defs><g id="e" clip-path="url(#f)"><circle cx="205" cy="205" r="205" fill="#fff"/><g transform="translate(-64.607 -84)"><path d="M324.78,306.14,286,228.49a50.748,50.748,0,0,1-3.67-9.78,74.472,74.472,0,0,1-5.6,18.06l37.37,74.74a50.33,50.33,0,0,1-1.83,48.43,48.12,48.12,0,0,1-40.36,24q-1.86.06-3.72,0a48.15,48.15,0,0,1-40.37-24,50.85,50.85,0,0,1-5.48-13.15,74.671,74.671,0,0,1-5.56,18c.25.44.47.89.73,1.32A60.71,60.71,0,0,0,267.73,396h4.54a60.71,60.71,0,0,0,50.27-29.89,62.27,62.27,0,0,0,2.24-59.97Z" fill="url(#a)"/><path d="M216.68,303.23a74.468,74.468,0,0,1,5.6,18.06,50.749,50.749,0,0,1,3.67-9.78l38.83-77.65a62.27,62.27,0,0,0-2.24-59.93A60.71,60.71,0,0,0,212.26,144h-4.52a60.71,60.71,0,0,0-50.27,29.89,62.27,62.27,0,0,0-2.24,59.93l38.83,77.65a50.33,50.33,0,0,1-1.83,48.43,48.12,48.12,0,0,1-40.36,24L150,384h-1.86a48.15,48.15,0,0,1-40.37-24A50.36,50.36,0,0,1,106,311.51l37.38-74.72a74.27,74.27,0,0,1-5.27-16.29L95.22,306.14a62.27,62.27,0,0,0,2.24,59.93A60.71,60.71,0,0,0,147.73,396h4.54a60.71,60.71,0,0,0,50.27-29.89,62.27,62.27,0,0,0,2.24-59.93L166,228.49a50.36,50.36,0,0,1,1.82-48.43,48.15,48.15,0,0,1,40.37-24h3.72a48.12,48.12,0,0,1,40.36,24,50.33,50.33,0,0,1,1.83,48.43Z" fill="url(#b)"/><path d="M444.78,306.14,402,220.51a74.268,74.268,0,0,1-5.27,16.29l37.37,74.71a50.36,50.36,0,0,1-1.82,48.43,48.15,48.15,0,0,1-40.37,24q-1.86.06-3.72,0a48.12,48.12,0,0,1-40.36-24,50.54,50.54,0,0,1-5.49-13.15,74.671,74.671,0,0,1-5.56,18c.25.44.47.89.73,1.32A60.71,60.71,0,0,0,387.73,396h4.54a60.71,60.71,0,0,0,50.27-29.89,62.27,62.27,0,0,0,2.24-59.97Z" fill="url(#c)"/><path d="M384.78,233.85a62.27,62.27,0,0,0-2.24-59.92A60.71,60.71,0,0,0,332.26,144h-4.53a60.71,60.71,0,0,0-50.27,29.89c-.26.43-.48.88-.73,1.32a74.729,74.729,0,0,1,5.56,17.95,50.93,50.93,0,0,1,5.48-13.14,48.15,48.15,0,0,1,40.37-24h3.72a48.12,48.12,0,0,1,40.36,24,50.33,50.33,0,0,1,1.83,48.43l-37.37,74.74a74.469,74.469,0,0,1,5.6,18.06,50.75,50.75,0,0,1,3.67-9.78Z" fill="url(#d)"/></g></g></svg>