<svg fill="none" height="922" viewBox="0 0 1260 922" width="1260" xmlns="http://www.w3.org/2000/svg" xmlns:xlink="http://www.w3.org/1999/xlink"><filter id="a" color-interpolation-filters="sRGB" filterUnits="userSpaceOnUse" height="843.421" width="1122.78" x="-138" y="78.4498"><feFlood flood-opacity="0" result="BackgroundImageFix"/><feBlend in="SourceGraphic" in2="BackgroundImageFix" mode="normal" result="shape"/><feGaussianBlur result="effect1_foregroundBlur" stdDeviation="125"/></filter><filter id="b" color-interpolation-filters="sRGB" filterUnits="userSpaceOnUse" height="843.421" width="1122.78" x="137.002" y="0"><feFlood flood-opacity="0" result="BackgroundImageFix"/><feBlend in="SourceGraphic" in2="BackgroundImageFix" mode="normal" result="shape"/><feGaussianBlur result="effect1_foregroundBlur" stdDeviation="125"/></filter><filter id="c" color-interpolation-filters="sRGB" filterUnits="userSpaceOnUse" height="540.713" width="750.324" x="144.719" y="179.808"><feFlood flood-opacity="0" result="BackgroundImageFix"/><feBlend in="SourceGraphic" in2="BackgroundImageFix" mode="normal" result="shape"/><feGaussianBlur result="effect1_foregroundBlur" stdDeviation="75"/></filter><g filter="url(#a)"><path d="m490.178 575.964c-130.8-47.235-208.166 12.249-230.5 47.896-72 72.009-117 47.345-130.5 26.012-38.4995-64.686-37.1995-214.539 276-296.458 313.201-81.918 346.501 57.255 324.001 137.081-25.167 48.171-108.2 132.704-239.001 85.469z" fill="#7c7cff"/></g><g filter="url(#b)"><path d="m765.18 345.907c-130.8 47.235-208.166-12.249-230.5-47.896-72-72.009-117-47.345-130.5-26.012-38.5 64.686-37.2 214.539 276 296.458 313.2 81.918 346.5-57.255 324-137.081-25.166-48.171-108.2-132.704-239-85.469z" fill="#c0a9c7"/></g><g filter="url(#c)"><ellipse fill="#77e3ef" rx="214.761" ry="76.2303" transform="matrix(-.934064 .357107 -.489029 -.872268 519.881 450.165)"/><ellipse rx="214.761" ry="76.2303" stroke="#9e00ff" stroke-width="40" transform="matrix(-.934064 .357107 -.489029 -.872268 519.881 450.165)"/></g></svg>