<svg fill="none" height="784" viewBox="0 0 1020 784" width="1020" xmlns="http://www.w3.org/2000/svg" xmlns:xlink="http://www.w3.org/1999/xlink"><filter id="a" color-interpolation-filters="sRGB" filterUnits="userSpaceOnUse" height="915.871" width="1122.78" x=".321472" y="-132"><feFlood flood-opacity="0" result="BackgroundImageFix"/><feBlend in="SourceGraphic" in2="BackgroundImageFix" mode="normal" result="shape"/><feGaussianBlur result="effect1_foregroundBlur" stdDeviation="125"/></filter><filter id="b" color-interpolation-filters="sRGB" filterUnits="userSpaceOnUse" height="603.089" width="781.958" x="106.333" y="84.4535"><feFlood flood-opacity="0" result="BackgroundImageFix"/><feBlend in="SourceGraphic" in2="BackgroundImageFix" mode="normal" result="shape"/><feGaussianBlur result="effect1_foregroundBlur" stdDeviation="75"/></filter><g filter="url(#a)"><path d="m628.5 234.14c-130.8 57.2-208.167-14.834-230.5-58-72-87.2003-117-57.334-130.5-31.5-38.5 78.333-37.2 259.8 276 359s346.5-69.334 324-166c-25.167-58.334-108.2-160.7-239-103.5z" fill="#7c7cff"/></g><g filter="url(#b)"><ellipse cx="497.312" cy="385.998" fill="#77e3ef" rx="100.036" ry="236.876" transform="matrix(-.39783655 .91745631 -.91745631 -.39783655 1049.297189 83.300078)"/><ellipse cx="497.312" cy="385.998" rx="100.036" ry="236.876" stroke="#9e00ff" stroke-width="40" transform="matrix(-.39783655 .91745631 -.91745631 -.39783655 1049.297189 83.300078)"/></g></svg>