<svg width="1260" height="922" viewBox="0 0 1260 922" fill="none" xmlns="http://www.w3.org/2000/svg">
<g filter="url(#filter0_f)">
<path d="M490.178 575.964C359.378 528.729 282.012 588.213 259.678 623.86C187.678 695.869 142.678 671.205 129.178 649.872C90.6785 585.186 91.9785 435.333 405.178 353.414C718.379 271.496 751.679 410.669 729.179 490.495C704.012 538.666 620.979 623.199 490.178 575.964Z" fill="#7C7CFF"/>
</g>
<g filter="url(#filter1_f)">
<path d="M765.18 345.907C634.38 393.142 557.014 333.658 534.68 298.011C462.68 226.002 417.68 250.666 404.18 271.999C365.68 336.685 366.98 486.538 680.18 568.457C993.38 650.375 1026.68 511.202 1004.18 431.376C979.014 383.205 895.98 298.672 765.18 345.907Z" fill="#C0A9C7"/>
</g>
<g style="mix-blend-mode:overlay" filter="url(#filter2_f)">
<ellipse rx="214.761" ry="76.2303" transform="matrix(-0.934064 0.357107 -0.489029 -0.872268 519.881 450.165)" fill="#77E3EF"/>
<ellipse rx="214.761" ry="76.2303" transform="matrix(-0.934064 0.357107 -0.489029 -0.872268 519.881 450.165)" stroke="#9E00FF" stroke-width="40"/>
</g>
<defs>
<filter id="filter0_f" x="-138" y="78.4498" width="1122.78" height="843.421" filterUnits="userSpaceOnUse" color-interpolation-filters="sRGB">
<feFlood flood-opacity="0" result="BackgroundImageFix"/>
<feBlend mode="normal" in="SourceGraphic" in2="BackgroundImageFix" result="shape"/>
<feGaussianBlur stdDeviation="125" result="effect1_foregroundBlur"/>
</filter>
<filter id="filter1_f" x="137.002" y="0" width="1122.78" height="843.421" filterUnits="userSpaceOnUse" color-interpolation-filters="sRGB">
<feFlood flood-opacity="0" result="BackgroundImageFix"/>
<feBlend mode="normal" in="SourceGraphic" in2="BackgroundImageFix" result="shape"/>
<feGaussianBlur stdDeviation="125" result="effect1_foregroundBlur"/>
</filter>
<filter id="filter2_f" x="144.719" y="179.808" width="750.324" height="540.713" filterUnits="userSpaceOnUse" color-interpolation-filters="sRGB">
<feFlood flood-opacity="0" result="BackgroundImageFix"/>
<feBlend mode="normal" in="SourceGraphic" in2="BackgroundImageFix" result="shape"/>
<feGaussianBlur stdDeviation="75" result="effect1_foregroundBlur"/>
</filter>
</defs>
</svg>
