<svg enable-background="new 0 0 512 512" fill="#ba0202" height="100" viewBox="0 0 512 512" width="100" xmlns="http://www.w3.org/2000/svg"><path d="m117.015 288.93c27.193 0 49.317-22.125 49.317-49.318s-22.124-49.316-49.317-49.316-49.316 22.123-49.316 49.316 22.123 49.318 49.316 49.318zm0-88.635c21.679 0 39.317 17.638 39.317 39.316 0 21.679-17.638 39.318-39.317 39.318s-39.316-17.639-39.316-39.318c0-21.678 17.637-39.316 39.316-39.316z"/><path d="m112.012 292.945v55.039l-15.728-15.726-7.072 7.07 27.8 27.799 27.799-27.799-7.071-7.07-15.728 15.726v-55.039z"/><path d="m236.661 173.121c27.194 0 49.317-22.123 49.317-49.316s-22.123-49.316-49.317-49.316c-27.193 0-49.316 22.123-49.316 49.316s22.122 49.316 49.316 49.316zm0-88.633c21.679 0 39.317 17.638 39.317 39.316s-17.638 39.316-39.317 39.316-39.316-17.638-39.316-39.316 17.636-39.316 39.316-39.316z"/><path d="m231.657 177.138v55.039l-15.728-15.727-7.071 7.07 27.799 27.8 27.799-27.8-7.07-7.07-15.729 15.727v-55.039z"/><path d="m331.32 262.545c27.193 0 49.316-22.124 49.316-49.317s-22.123-49.317-49.316-49.317-49.316 22.124-49.316 49.317 22.123 49.317 49.316 49.317zm0-88.634c21.679 0 39.316 17.638 39.316 39.317s-17.638 39.316-39.316 39.316-39.316-17.638-39.316-39.316c0-21.68 17.638-39.317 39.316-39.317z"/><path d="m326.316 266.561v55.041l-15.728-15.729-7.07 7.07 27.798 27.801 27.799-27.801-7.07-7.07-15.729 15.729v-55.041z"/><path d="m445.184 130.693c27.193 0 49.316-22.123 49.316-49.316s-22.123-49.317-49.316-49.317-49.317 22.123-49.317 49.316 22.123 49.317 49.317 49.317zm0-88.633c21.679 0 39.316 17.638 39.316 39.316s-17.638 39.316-39.316 39.316c-21.68 0-39.317-17.638-39.317-39.316s17.637-39.316 39.317-39.316z"/><path d="m465.908 174.022-15.728 15.728v-55.04h-10v55.04l-15.729-15.728-7.07 7.07 27.799 27.8 27.799-27.8z"/><path d="m412.845 447.277h-10v22.662h-62.537v-22.662h-10v22.662h-62.537v-22.662h-10v22.662h-62.536v-22.662h-10v22.662h-62.536v-22.662h-10v22.662h-62.537v-430.218h-10v67.536h-22.662v10h22.662v62.537h-22.662v10h22.662v62.537h-22.662v9.999h22.662v62.537h-22.662v10h22.662v62.537h-22.662v10h22.662v72.535h449.338v-10h-76.655z"/><path d="m115.604 244.41c4.796 1.407 4.828 2.573 4.854 3.509.045 1.623-.873 2.994-2.288 3.415-.226.067-.456.116-.678.145-1.046.14-1.817-.377-2.177-.695-.691-.608-1.088-1.484-1.088-2.403h-10c0 3.791 1.633 7.403 4.48 9.91.999.879 2.117 1.576 3.304 2.104v5.76h10v-5.574c5.176-2.008 8.604-7.181 8.443-12.938-.262-9.371-9.123-11.972-12.035-12.826-4.683-1.374-4.752-2.149-4.832-3.047-.173-1.938.98-3.648 2.671-3.978.097-.019.194-.034.291-.046 1.044-.136 1.803.383 2.16.7.688.609 1.081 1.485 1.078 2.4l-.001.302 10 .033.001-.305c.01-3.786-1.609-7.399-4.443-9.912-1.006-.893-2.134-1.606-3.333-2.139v-5.753h-10v5.593c-5.438 2.163-8.937 7.787-8.385 13.99.754 8.461 8.334 10.685 11.978 11.755z"/><path d="m235.25 128.602c4.796 1.407 4.828 2.573 4.854 3.509.045 1.623-.874 2.994-2.288 3.415-.226.067-.456.116-.678.145-1.055.139-1.817-.377-2.177-.695-.691-.608-1.088-1.484-1.088-2.403h-10c0 3.791 1.633 7.403 4.48 9.91.999.879 2.117 1.576 3.304 2.103v5.761h10v-5.575c5.176-2.008 8.604-7.18 8.443-12.938-.262-9.371-9.123-11.972-12.035-12.826-4.683-1.374-4.752-2.149-4.832-3.047-.172-1.938.981-3.648 2.669-3.977.098-.02.196-.035.293-.047 1.05-.139 1.804.384 2.161.7.688.609 1.081 1.485 1.078 2.4l-.001.301 10 .033.001-.304c.01-3.786-1.609-7.399-4.443-9.912-1.006-.893-2.133-1.606-3.333-2.138v-5.754h-10v5.593c-5.437 2.162-8.937 7.787-8.385 13.99.753 8.462 8.333 10.687 11.977 11.756z"/><path d="m329.908 218.026c4.797 1.407 4.829 2.572 4.855 3.508.045 1.622-.874 2.994-2.288 3.415-.229.068-.455.116-.678.145-1.056.138-1.817-.377-2.179-.694-.69-.608-1.087-1.484-1.087-2.403h-10c0 3.791 1.633 7.403 4.479 9.909.999.879 2.118 1.577 3.305 2.104v5.76h10v-5.575c5.175-2.007 8.604-7.181 8.443-12.938-.262-9.37-9.124-11.971-12.035-12.825-4.683-1.375-4.752-2.15-4.832-3.048-.173-1.938.98-3.647 2.696-3.981.089-.018.178-.03.267-.042 1.045-.125 1.803.384 2.159.7.688.609 1.081 1.486 1.078 2.418v.301h10v-.286c.011-3.787-1.608-7.401-4.442-9.914-1.006-.892-2.134-1.605-3.334-2.137v-5.754h-10v5.593c-5.438 2.162-8.938 7.785-8.385 13.99.757 8.459 8.336 10.685 11.978 11.754z"/><path d="m443.771 86.174c4.796 1.407 4.828 2.572 4.854 3.509.045 1.622-.873 2.994-2.287 3.415-.226.067-.456.116-.679.145-1.057.138-1.816-.377-2.178-.695-.691-.608-1.088-1.484-1.088-2.403h-10c0 3.791 1.633 7.403 4.48 9.91.998.879 2.117 1.577 3.305 2.103v5.761h10v-5.576c5.176-2.008 8.604-7.182 8.442-12.937-.26-9.371-9.122-11.972-12.034-12.826-4.684-1.374-4.752-2.149-4.832-3.047-.173-1.938.98-3.648 2.668-3.977.098-.02.194-.035.294-.047 1.05-.134 1.804.384 2.16.7.688.61 1.081 1.485 1.078 2.4l-.001.301 10 .033.001-.303c.011-3.786-1.608-7.399-4.442-9.913-1.007-.893-2.134-1.606-3.334-2.139v-5.753h-10v5.593c-5.438 2.162-8.938 7.786-8.385 13.99.755 8.462 8.336 10.687 11.978 11.756z"/><path d="m445.18 268.561c14.46 0 26.221-11.75 26.221-26.21 0-14.45-11.761-26.21-26.221-26.21-14.449 0-26.21 11.76-26.21 26.21 0 6.109 2.101 11.73 5.62 16.189l-80.25 92.932c-3.84-2.221-8.29-3.48-13.02-3.48-5.67 0-10.931 1.809-15.221 4.9l-57.21-54.24c2.53-4.021 3.99-8.781 3.99-13.871 0-14.459-11.76-26.219-26.22-26.219-14.45 0-26.21 11.76-26.21 26.219 0 5.291 1.58 10.23 4.29 14.35l-82.96 82.07c-4.2-2.879-9.29-4.57-14.76-4.57-14.46 0-26.22 11.762-26.22 26.211 0 14.459 11.76 26.221 26.22 26.221 14.45 0 26.21-11.762 26.21-26.221 0-5.369-1.63-10.369-4.41-14.529l82.89-82.021c4.24 2.961 9.4 4.701 14.95 4.701 5.76 0 11.08-1.861 15.41-5.02l57.149 54.17c-2.6 4.059-4.109 8.889-4.109 14.059 0 14.461 11.76 26.221 26.21 26.221 14.449 0 26.21-11.76 26.21-26.221 0-6.1-2.101-11.729-5.63-16.189l80.26-92.93c3.841 2.216 8.291 3.478 13.021 3.478zm-328.16 150.5c-8.95 0-16.22-7.281-16.22-16.221s7.271-16.211 16.22-16.211c2.68 0 5.21.66 7.44 1.82 3.03 1.561 5.5 4.051 7.03 7.1 1.11 2.191 1.74 4.672 1.74 7.291 0 8.939-7.27 16.221-16.21 16.221zm134.37-127.522c-1.42 3.111-3.81 5.691-6.78 7.361-2.35 1.33-5.06 2.09-7.95 2.09-2.77 0-5.37-.701-7.65-1.92-3-1.611-5.43-4.141-6.93-7.211-1.04-2.139-1.63-4.539-1.63-7.08 0-8.939 7.27-16.219 16.21-16.219s16.22 7.279 16.22 16.219c0 2.41-.53 4.701-1.49 6.76zm79.93 98.881c-8.94 0-16.21-7.279-16.21-16.221 0-2.5.569-4.869 1.579-6.979 1.48-3.08 3.891-5.621 6.881-7.25 2.3-1.262 4.939-1.98 7.75-1.98 2.229 0 4.359.449 6.29 1.279 3.159 1.33 5.81 3.631 7.569 6.529 1.49 2.451 2.351 5.33 2.351 8.4 0 8.943-7.27 16.222-16.21 16.222zm97.65-148.07c0-8.94 7.271-16.21 16.21-16.21 8.94 0 16.221 7.27 16.221 16.21 0 8.939-7.28 16.21-16.221 16.21-2.229 0-4.359-.451-6.29-1.271-3.159-1.339-5.81-3.639-7.569-6.539-1.491-2.451-2.351-5.33-2.351-8.4z"/></svg>