<svg height="842pt" preserveAspectRatio="xMidYMid meet" viewBox="0 0 842 842" width="842pt" xmlns="http://www.w3.org/2000/svg"><path d="m2810 5614-1575-1574 2-1102c1-607 2-1237 3-1400v-297l1403-1h1402l1570 1570 1569 1571 3 602c1 527 4 2159 3 2195 0 11-249 13-1402 12l-1403-2zm3970 1340c0-1-293-295-651-653l-652-651h-1145c-630 0-1142 3-1139 8l649 649 642 643h790c434 0 791 1 792 3 3 2 714 3 714 1zm170-995c0-448-2-963-2-1146l-2-332-648-648-648-648v1149 1148l648 648c356 357 648 647 650 645 1-1 2-369 2-816zm-1577-549h37l-2-1197-3-1198-1197-1-1198-2v1198 1199l33 3c24 2 2092 1 2330-2zm-3248-3114c-355-356-645-641-646-634 0 7-1 523-3 1146l-2 1133 646 646 645 645 3-1145 2-1144zm3100 472c3-2-287-294-643-649l-647-646-830 3c-456 2-972 4-1145 4h-315l645 644 645 645 50 3c72 4 2236 0 2240-4z" transform="matrix(.1 0 0 -.1 0 842)"/></svg>