<svg height='100px' width='100px'  fill="#ba0202" xmlns="http://www.w3.org/2000/svg" viewBox="0 0 512 512" x="0px" y="0px"><g><path d="M120,112h32v-6.109a84.249,84.249,0,0,1,8-35.727V32H112V70.164a84.249,84.249,0,0,1,8,35.727Z"></path><path d="M232,32H217.887l-7.153,3.578A42.571,42.571,0,0,1,176,36.82V59.18a42.467,42.467,0,0,1,34.73,1.242L217.887,64H232Z"></path><path d="M34.617,84.734A116.183,116.183,0,0,1,96,64.117V32.445A72.173,72.173,0,0,0,34.617,84.734Z"></path><path d="M120,440v37.75l41.937-10.484A61.9,61.9,0,0,1,152.471,440Z"></path><rect x="120" y="128" width="32" height="152"></rect><rect x="120" y="296" width="32" height="128"></rect><path d="M296,448h16V422.526a22.44,22.44,0,0,1-16,0Z"></path><rect x="368" y="464" width="32" height="16"></rect><path d="M232,240a16.019,16.019,0,0,0,16,16h16V224H248A16.019,16.019,0,0,0,232,240Z"></path><circle cx="384" cy="400" r="8"></circle><circle cx="304" cy="400" r="8"></circle><path d="M248,144a16.019,16.019,0,0,0,16,16V128A16.019,16.019,0,0,0,248,144Z"></path><rect x="288" y="464" width="32" height="16"></rect><path d="M312,377.474V352H296v25.474a22.447,22.447,0,0,1,16,0Z"></path><circle cx="312" cy="144" r="8"></circle><path d="M392,377.474V352H376v25.474a22.447,22.447,0,0,1,16,0Z"></path><path d="M440,224H424v32h16a16,16,0,0,0,0-32Z"></path><path d="M400,112H288a8.008,8.008,0,0,0-8,8v48a8.008,8.008,0,0,0,8,8H400a8.008,8.008,0,0,0,8-8V120A8.008,8.008,0,0,0,400,112Zm-88,56a24,24,0,1,1,24-24A24.027,24.027,0,0,1,312,168Zm64,0a24,24,0,1,1,24-24A24.027,24.027,0,0,1,376,168Z"></path><rect x="328" y="192" width="32" height="16"></rect><circle cx="376" cy="144" r="8"></circle><path d="M376,448h16V422.526a22.44,22.44,0,0,1-16,0Z"></path><path d="M344,80a16.019,16.019,0,0,0-16,16h32A16.019,16.019,0,0,0,344,80Z"></path><path d="M440,144a16.019,16.019,0,0,0-16-16v32A16.019,16.019,0,0,0,440,144Z"></path><path d="M320,224H280V328a8.008,8.008,0,0,0,8,8H400a8.008,8.008,0,0,0,8-8V224H320Zm31.438,27.039a9.6,9.6,0,0,1-1.758,2.641,8.113,8.113,0,0,1-11.36,0,9.308,9.308,0,0,1-1.683-2.641A7.982,7.982,0,0,1,336,248a8,8,0,1,1,16,0A7.852,7.852,0,0,1,351.438,251.039Zm33.2-6.078a8.249,8.249,0,0,1,1.683-2.641,7.882,7.882,0,0,1,13.039,2.641,7.524,7.524,0,0,1,0,6.078,9.383,9.383,0,0,1-1.679,2.641,8.113,8.113,0,0,1-11.36,0,9.308,9.308,0,0,1-1.683-2.641A6.746,6.746,0,0,1,384,248,7.982,7.982,0,0,1,384.637,244.961Zm-9.278,0A7.986,7.986,0,0,1,376,248a6.7,6.7,0,0,1-.641,3.039,9.383,9.383,0,0,1-1.679,2.641,9.239,9.239,0,0,1-2.641,1.679,7.913,7.913,0,0,1-8.719-1.679,9.308,9.308,0,0,1-1.683-2.641,7.568,7.568,0,0,1,0-6.078,7.226,7.226,0,0,1,4.32-4.32,7.988,7.988,0,0,1,8.723,1.679A8.307,8.307,0,0,1,375.359,244.961Z"></path><path d="M232,313.474V256H216v57.474A23.96,23.96,0,0,0,200,336v16h16V336a8,8,0,0,1,16,0v16h16V336A23.96,23.96,0,0,0,232,313.474Z"></path><path d="M472,313.474V256H456v57.474A23.96,23.96,0,0,0,440,336v16h16V336a8,8,0,0,1,16,0v16h16V336A23.96,23.96,0,0,0,472,313.474Z"></path></g></svg>