<svg height="100" viewBox="0 0 74 74" width="100" xmlns="http://www.w3.org/2000/svg"><path d="m767.998021 357.359098c-7.870488 0-14.16213-6.31562-14.16213-14.220075 0-7.825013 6.366825-14.259796 14.205658-14.259796 7.755735.039721 14.166087 6.434783 14.12256 14.259796 0 7.904455-6.291642 14.220075-14.166088 14.220075m35.73178-21.250671c-1.780654-.317767-3.600877-.595813-5.421101-.91358-.514411-.079442-.989252-.158884-1.503663-.238325-.075183 0-.15828-.035749-.15828-.158884-.589594-2.144927-1.464093-4.206441-2.568098-6.152764 0 0 0-.039721-.043527-.083414 1.661943-2.260118 3.284316-4.52818 4.946259-6.792271-3.201219-3.25314-6.366825-6.474503-9.532431-9.731615-.11871.079442-.241378.158883-.360088.238325-2.136784 1.473645-4.313138 2.943317-6.449922 4.452711-.114753.075469-.197851.075469-.316561 0-1.934977-1.032743-3.91348-1.870854-6.010694-2.502416-.122668 0-.158281-.083414-.158281-.158883-.439228-2.661299-.914069-5.282877-1.345382-7.944176 0-.043693 0-.083414-.03957-.123135h-13.536924c-.075183.440902-.15828.834138-.23742 1.231347l-.949682 5.958132c-.075183.317767-.114753.675255-.19785.993022 0 .119163-.035613.158884-.158281.202577-2.014116.55212-3.957007 1.386259-5.777231 2.419001-.27699.119163-.474841.119163-.751831-.075469-2.057644-1.473645-4.154858-2.943317-6.208545-4.41299-.083097-.039721-.122667-.07547-.197851-.119163-3.244746 3.181643-6.493449 6.355341-9.734238 9.572732.075183.083414.114753.158884.15828.242298 1.578846 2.144927 3.122079 4.289855 4.669269 6.434782.075183.07547.11871.158884.035613.274075-1.064435 1.986044-1.938934 4.055501-2.488958 6.236178-.03957.079441-.083097.123134-.19785.158883-1.38891.198605-2.769906.397209-4.198385.595813l-3.798728.595814c-.075183 0-.114753 0-.19785.039721v13.628234c.478798.035748.914069.11519 1.345383.194632 1.978503.321739 3.917437.639506 5.895941.993022.320518.039721.637078.079442.953639.158883.075183 0 .15828.079442.15828.123135.589594 2.101235 1.464093 4.087279 2.492915 6.033602.075183.123135.075183.238325 0 .357488-1.58676 2.228341-3.126036 4.448738-4.712796 6.633387-.03957.039721-.075183.119162-.114753.198604 3.201219 3.181643 6.366825 6.355341 9.575958 9.572732.03957-.079441.114753-.11519.197851-.158883 2.172397-1.549114 4.388321-3.13795 6.568632-4.687064.114753-.119163.197851-.07547.356131-.035749 1.820223.993022 3.759157 1.823189 5.777231 2.379281.391744.119163.550024.278046.589594.675255.399658 2.502415.834929 4.96511 1.266243 7.467525v.119163h13.616063c.431314-2.697048.866585-5.40204 1.345383-8.10306 0-.119162.035613-.158883.15828-.198604 2.097214-.595813 4.075718-1.469673 5.971124-2.462695.158281-.075469.241378-.075469.395701 0 2.180311 1.592808 4.392279 3.177671 6.61216 4.730757.03957.035749.075183.07547.114753.07547 3.209133-3.17767 6.374739-6.351369 9.536389-9.572732 0-.039721-.035613-.07547-.075184-.158884-1.54719-2.184648-3.126036-4.405045-4.712796-6.633387-.075183-.119162-.075183-.198604 0-.357488.953639-1.787439 1.820224-3.654321 2.334635-5.640365.122667-.393236.280947-.55212.716218-.595813 2.093257-.274074 4.190471-.631562 6.291642-.949329.431314-.043693.866585-.123135 1.345383-.202576v-13.624262c-.439228-.039721-.830972-.119163-1.270199-.198605" fill-rule="evenodd" transform="translate(-731 -306)"/></svg>