<svg fill="none" height="14" viewBox="0 0 20 14" width="20" xmlns="http://www.w3.org/2000/svg"><g clip-rule="evenodd" fill="#77e3ef" fill-rule="evenodd"><path d="m.5 7c0-.27614.223858-.5.5-.5h18c.2761 0 .5.22386.5.5s-.2239.5-.5.5h-18c-.276142 0-.5-.22386-.5-.5z"/><path d="m7.35355.646447c.19527.195262.19527.511843 0 .707103l-5.64644 5.64645 5.64644 5.6464c.19527.1953.19527.5119 0 .7072-.19526.1952-.51184.1952-.7071 0l-6.000003-6.00005c-.195263-.19526-.195263-.51184 0-.7071l6.000003-6.000003c.19526-.195263.51184-.195263.7071 0z"/></g></svg>