<svg fill="none" height="890" viewBox="0 0 934 890" width="934" xmlns="http://www.w3.org/2000/svg" xmlns:xlink="http://www.w3.org/1999/xlink"><filter id="a" color-interpolation-filters="sRGB" filterUnits="userSpaceOnUse" height="1020.88" width="1122.78" x="-463.787" y="118.988"><feFlood flood-opacity="0" result="BackgroundImageFix"/><feBlend in="SourceGraphic" in2="BackgroundImageFix" mode="normal" result="shape"/><feGaussianBlur result="effect1_foregroundBlur" stdDeviation="125"/></filter><filter id="b" color-interpolation-filters="sRGB" filterUnits="userSpaceOnUse" height="1020.88" width="1122.78" x="-188.785" y="0"><feFlood flood-opacity="0" result="BackgroundImageFix"/><feBlend in="SourceGraphic" in2="BackgroundImageFix" mode="normal" result="shape"/><feGaussianBlur result="effect1_foregroundBlur" stdDeviation="125"/></filter><filter id="c" color-interpolation-filters="sRGB" filterUnits="userSpaceOnUse" height="750.447" width="845.536" x="-228.674" y="178.376"><feFlood flood-opacity="0" result="BackgroundImageFix"/><feBlend in="SourceGraphic" in2="BackgroundImageFix" mode="normal" result="shape"/><feGaussianBlur result="effect1_foregroundBlur" stdDeviation="100"/></filter><g opacity=".5"><g filter="url(#a)"><path d="m164.392 744.405c-130.8004-71.644-208.167 18.579-230.5004 72.645-71.9996 109.219-116.9996 71.811-130.4996 39.454-38.5-98.113-37.2-325.402 275.9996-449.651 313.2004-124.249 346.5004 86.841 324.0004 207.917-25.167 73.063-108.2 201.278-239 129.635z" fill="#7c7cff"/></g><g filter="url(#b)"><path d="m439.394 395.466c-130.8 71.644-208.167-18.579-230.5-72.645-72-109.219-117.0004-71.811-130.5004-39.454-38.5 98.113-37.2 325.402 276.0004 449.651 313.2 124.249 346.5-86.841 324-207.917-25.167-73.063-108.2-201.278-239-129.635z" fill="#77e3ef"/></g><g filter="url(#c)"><ellipse fill="#c0a9c7" rx="231.887" ry="107.523" transform="matrix(-.865078 .501637 -.346707 -.937973 194.094 553.6)"/><ellipse rx="231.887" ry="107.523" stroke="#9e00ff" stroke-width="40" transform="matrix(-.865078 .501637 -.346707 -.937973 194.094 553.6)"/></g></g></svg>