<svg width="934" height="890" viewBox="0 0 934 890" fill="none" xmlns="http://www.w3.org/2000/svg">
<g style="mix-blend-mode:color-dodge" opacity="0.5">
<g filter="url(#filter0_f)">
<path d="M164.392 744.405C33.5916 672.761 -43.775 762.984 -66.1084 817.05C-138.108 926.269 -183.108 888.861 -196.608 856.504C-235.108 758.391 -233.808 531.102 79.3916 406.853C392.592 282.604 425.892 493.694 403.392 614.77C378.225 687.833 295.192 816.048 164.392 744.405Z" fill="#7C7CFF"/>
</g>
<g filter="url(#filter1_f)">
<path d="M439.394 395.466C308.594 467.11 231.227 376.887 208.894 322.821C136.894 213.602 91.8936 251.01 78.3936 283.367C39.8936 381.48 41.1936 608.769 354.394 733.018C667.594 857.267 700.894 646.177 678.394 525.101C653.227 452.038 570.194 323.823 439.394 395.466Z" fill="#77E3EF"/>
</g>
<g style="mix-blend-mode:soft-light" filter="url(#filter2_f)">
<ellipse rx="231.887" ry="107.523" transform="matrix(-0.865078 0.501637 -0.346707 -0.937973 194.094 553.6)" fill="#C0A9C7"/>
<ellipse rx="231.887" ry="107.523" transform="matrix(-0.865078 0.501637 -0.346707 -0.937973 194.094 553.6)" stroke="#9E00FF" stroke-width="40"/>
</g>
</g>
<defs>
<filter id="filter0_f" x="-463.787" y="118.988" width="1122.78" height="1020.88" filterUnits="userSpaceOnUse" color-interpolation-filters="sRGB">
<feFlood flood-opacity="0" result="BackgroundImageFix"/>
<feBlend mode="normal" in="SourceGraphic" in2="BackgroundImageFix" result="shape"/>
<feGaussianBlur stdDeviation="125" result="effect1_foregroundBlur"/>
</filter>
<filter id="filter1_f" x="-188.785" y="0" width="1122.78" height="1020.88" filterUnits="userSpaceOnUse" color-interpolation-filters="sRGB">
<feFlood flood-opacity="0" result="BackgroundImageFix"/>
<feBlend mode="normal" in="SourceGraphic" in2="BackgroundImageFix" result="shape"/>
<feGaussianBlur stdDeviation="125" result="effect1_foregroundBlur"/>
</filter>
<filter id="filter2_f" x="-228.674" y="178.376" width="845.536" height="750.447" filterUnits="userSpaceOnUse" color-interpolation-filters="sRGB">
<feFlood flood-opacity="0" result="BackgroundImageFix"/>
<feBlend mode="normal" in="SourceGraphic" in2="BackgroundImageFix" result="shape"/>
<feGaussianBlur stdDeviation="100" result="effect1_foregroundBlur"/>
</filter>
</defs>
</svg>
