<svg fill="none" height="32" viewBox="0 0 32 32" width="32" xmlns="http://www.w3.org/2000/svg"><path d="m0 0h32v32h-32z" fill="#ffe7b7"/><path d="m27.5 3.5h-23c-.55313 0-1 .44687-1 1v23c0 .5531.44687 1 1 1h23c.5531 0 1-.4469 1-1v-23c0-.55313-.4469-1-1-1zm-14.875 17.8438v2.4062c0 .1375-.1125.25-.25.25h-1.5c-.1375 0-.25-.1125-.25-.25v-2.4062c-1.30312-.425-2.25-1.65-2.25-3.0938s.94688-2.6719 2.25-3.0938v-6.9062c0-.1375.1125-.25.25-.25h1.5c.1375 0 .25.1125.25.25v6.9062c1.3031.4251 2.25 1.65 2.25 3.0938s-.9469 2.6719-2.25 3.0938zm8.7375-4.4969c.0062 0 .0094-.0031.0125-.0031v6.9062c0 .1375-.1125.25-.25.25h-1.5c-.1375 0-.25-.1125-.25-.25v-6.9062c.0063 0 .0094.0031.0125.0031-1.3125-.4188-2.2625-1.6469-2.2625-3.0969s.95-2.6781 2.2625-3.0969c-.0062 0-.0094.0031-.0125.0031v-2.4062c0-.1375.1125-.25.25-.25h1.5c.1375 0 .25.1125.25.25v2.4062c-.0063 0-.0094-.0031-.0125-.0031 1.3125.4188 2.2625 1.6469 2.2625 3.0969s-.95 2.6781-2.2625 3.0969zm-2.1125-3.0969c0 .2984.1185.5845.3295.7955s.4971.3295.7955.3295.5845-.1185.7955-.3295.3295-.4971.3295-.7955-.1185-.5845-.3295-.7955-.4971-.3295-.7955-.3295-.5845.1185-.7955.3295-.3295.4971-.3295.7955zm-6.6438 3.9531-.0468-.075c0-.0031-.0032-.0031-.0032-.0062l-.0281-.0375c-.0031-.0031-.0062-.0063-.0062-.0094-.0313-.0406-.0625-.0781-.1-.1125l-.0063-.0063c-.0125-.0125-.025-.025-.0375-.0343-.025-.025-.0531-.0469-.0812-.0656h-.0032l-.0374-.0282c-.0032-.0031-.0094-.0062-.0126-.0093-.0375-.025-.0781-.05-.1218-.0688-.0063-.0031-.0156-.0063-.0219-.0125-.0125-.0063-.0219-.0094-.0344-.0156-.0093-.0032-.0219-.0094-.0312-.0125-.0156-.0063-.0313-.0125-.0469-.0156-.0125-.0032-.0281-.0094-.0406-.0126l-.0282-.0093-.0437-.0094c-.0063-.0031-.0156-.0031-.0219-.0063-.0219-.0031-.0437-.0093-.0656-.0125-.0063 0-.0125.0001-.0187-.0031-.0188-.0031-.0344-.0031-.0532-.0062-.0062 0-.0125 0-.0218-.0031-.025 0-.0469-.0032-.0719-.0032s-.0469 0-.0719.0032c-.0063 0-.0125-.0001-.0219.0031-.0187 0-.0375.0031-.0531.0062-.0062 0-.0125 0-.0187.0031-.0219.0032-.0438.0063-.0657.0125-.0062.0032-.0156.0032-.0219.0063l-.0437.0094-.0281.0093c-.0125.0032-.0281.0094-.0406.0126-.0157.0062-.0313.0125-.0469.0156-.0094.0031-.0219.0093-.0313.0125-.0125.0062-.0219.0093-.0343.0156-.0063.0031-.0157.0062-.0219.0125-.0407.0219-.0813.0438-.1219.0688-.0031.0031-.0094.0062-.0125.0093l-.0375.0282h-.0031c-.0282.0218-.0563.0437-.0813.0656-.0125.0125-.025.0218-.0375.0343l-.0062.0063c-.035.036-.0684.0736-.1.1125-.0031.0031-.0063.0063-.0063.0094l-.0281.0375c0 .0031-.0031.0031-.0031.0062l-.0469.075c-.0031.0063-.0062.0094-.0094.0157-.0843.1593-.1344.3406-.1344.5312s.0501.375.1344.5312c.0032.0063.0063.0094.0094.0157l.0469.075c0 .0031.0031.0031.0031.0062l.0281.0375c.0032.0031.0063.0063.0063.0094.0312.0406.0625.0781.1.1125l.0062.0063c.0125.0125.025.025.0375.0343.025.025.0531.0469.0813.0656h.0031l.0375.0282c.0031.0031.0094.0062.0125.0093.0375.025.0781.05.1219.0688.0062.0031.0156.0063.0219.0125.0124.0063.0218.0094.0343.0156.0094.0032.0219.0094.0313.0125.0156.0063.0312.0125.0469.0156.0125.0032.0281.0094.0406.0126l.0281.0093.0437.0094c.0063.0031.0157.0031.0219.0063.0219.0031.0438.0093.0657.0125.0062 0 .0125-.0001.0187.0031.0188.0031.0344.0031.0531.0062.0063 0 .0125 0 .0219.0031.025 0 .0469.0032.0719.0032s.0469 0 .0719-.0032c.0062 0 .0125.0001.0218-.0031.0188 0 .0375-.0031.0532-.0062.0062 0 .0124 0 .0187-.0031.0219-.0032.0437-.0063.0656-.0125.0063-.0032.0156-.0032.0219-.0063l.0437-.0094.0282-.0093c.0125-.0032.0281-.0094.0406-.0126.0156-.0062.0313-.0125.0469-.0156.0093-.0031.0219-.0093.0312-.0125.0125-.0062.0219-.0093.0344-.0156.0063-.0031.0156-.0062.0219-.0125.0406-.0219.0812-.0438.1218-.0688.0032-.0031.0094-.0062.0126-.0093l.0374-.0282h.0032c.0281-.0218.0562-.0437.0812-.0656.0125-.0125.025-.0218.0375-.0343l.0063-.0063c.0344-.0344.0687-.075.1-.1125.0031-.0031.0062-.0063.0062-.0094l.0281-.0375c0-.0031.0032-.0031.0032-.0062l.0468-.075c.0032-.0063.0063-.0094.0094-.0157.0844-.1593.1344-.3406.1344-.5312s-.05-.375-.1344-.5312c-.0031-.0063-.0062-.0125-.0094-.0157z" fill="#b80812"/></svg>