<svg fill="none" height="32" viewBox="0 0 32 32" width="32" xmlns="http://www.w3.org/2000/svg"><path d="m0 0h32v32h-32z" fill="#b80812"/><path d="m23.5704 11.4004-3.8007 2.3418-3.6446-4.86131c-.0146-.01956-.0337-.03545-.0555-.04638-.0219-.01094-.046-.01664-.0705-.01664-.0244 0-.0485.0057-.0704.01664-.0219.01093-.0409.02682-.0555.04638l-3.6426 4.86131-3.80275-2.3418c-.11132-.0683-.25586.0235-.23828.1543l1.49219 11.3399c.02148.1543.1543.2734.3125.2734h12.01364c.1563 0 .291-.1172.3106-.2734l1.4922-11.3399c.0156-.1308-.127-.2226-.2403-.1543zm-7.5703 8.9395c-1.2129 0-2.1992-.9863-2.1992-2.1992s.9863-2.1993 2.1992-2.1993 2.1992.9864 2.1992 2.1993-.9863 2.1992-2.1992 2.1992zm0-3.1426c-.5195 0-.9414.4219-.9414.9434 0 .5195.4219.9433.9414.9433.5196 0 .9414-.4219.9414-.9433 0-.5196-.4218-.9434-.9414-.9434z" fill="#ffe7b7"/></svg>