<svg fill="none" height="24" viewBox="0 0 24 24" width="24" xmlns="http://www.w3.org/2000/svg"><path d="m12 1.5c-5.79844 0-10.5 4.70156-10.5 10.5 0 5.7984 4.70156 10.5 10.5 10.5 5.7984 0 10.5-4.7016 10.5-10.5 0-5.79844-4.7016-10.5-10.5-10.5zm.5227 15.5906.0046.743c0 .1031-.0843.1898-.1875.1898h-.6656c-.1031 0-.1875-.0843-.1875-.1875v-.7359c-2.08123-.1547-3.06092-1.3406-3.16639-2.6297-.00937-.1101.07735-.2039.1875-.2039h1.08282c.0914 0 .17109.0656.18515.1547.11953.743.69842 1.2984 1.73672 1.4367v-3.3445l-.5789-.1477c-1.22579-.2929-2.39298-1.057-2.39298-2.64138 0-1.7086 1.29844-2.62735 2.95778-2.78906v-.77344c0-.10313.0844-.1875.1875-.1875h.6586c.1032 0 .1875.08437.1875.1875v.76641c1.6055.16171 2.8102 1.09921 2.9508 2.55937.0117.11016-.075.20625-.1875.20625h-1.0523c-.0938 0-.1735-.07031-.1852-.16172-.0937-.68437-.6422-1.24219-1.5351-1.36406v3.14763l.5953.1383c1.5187.375 2.5523 1.1016 2.5523 2.7281 0 1.7649-1.3125 2.7493-3.1476 2.9086zm-2.52426-7.47419c0 .59529.36796 1.05699 1.16016 1.34299.1102.0445.2203.0797.3516.1172v-2.90629c-.8649.11016-1.51176.59531-1.51176 1.4461zm2.73046 3.16879c-.0656-.0141-.1312-.0305-.2062-.0516v3.1336c.9984-.0891 1.6875-.6375 1.6875-1.5563 0-.7195-.3727-1.1882-1.4813-1.5257z" fill="#ffe7b7"/></svg>