<svg fill="none" height="32" viewBox="0 0 32 32" width="32" xmlns="http://www.w3.org/2000/svg"><path d="m0 0h32v32h-32z" fill="#b80812"/><path d="m29.428 26.0011h-24.57141v-22.28576c0-.15714-.12858-.28571-.28572-.28571h-2c-.15714 0-.28571.12857-.28571.28571v24.57146c0 .1571.12857.2857.28571.2857h26.85713c.1572 0 .2857-.1286.2857-.2857v-2c0-.1572-.1285-.2857-.2857-.2857zm-20.79284-5.5108c.11071.1108.28928.1108.40357 0l4.93927-4.9142 4.5572 4.5857c.1107.1107.2928.1107.4035 0l9.8357-9.8322c.1108-.1107.1108-.2928 0-.40355l-1.4142-1.41428c-.0537-.05317-.1263-.083-.2018-.083-.0756 0-.1481.02983-.2018.083l-8.2143 8.21073-4.55-4.5786c-.0537-.0532-.1262-.083-.2018-.083s-.1481.0298-.2018.083l-6.56426 6.525c-.05317.0537-.083.1262-.083.2018s.02983.1481.083.2018z" fill="#ffe7b7"/></svg>