<svg width="200" height="200" viewBox="0 0 200 200" fill="none" xmlns="http://www.w3.org/2000/svg">
<mask id="mask0" mask-type="alpha" maskUnits="userSpaceOnUse" x="0" y="0" width="200" height="200">
<circle cx="100" cy="100" r="100" fill="#121838"/>
</mask>
<g mask="url(#mask0)">
<circle cx="100" cy="100" r="100" fill="#121838"/>
<path opacity="0.25" d="M0 16C0 7.16344 7.16344 0 16 0H64L110 200H16C7.16344 200 0 192.837 0 184V16Z" fill="url(#paint0_linear)"/>
<path opacity="0.25" d="M200 16C200 7.16344 192.837 0 184 0H136L110 200H184C192.837 200 200 192.837 200 184V16Z" fill="url(#paint1_linear)"/>
<g filter="url(#filter0_f)">
<rect x="14" y="143" width="172" height="3" rx="1.5" fill="#121838"/>
</g>
<path d="M74 106H127L130 151H71L74 106Z" fill="#0F0F11"/>
<path opacity="0.75" d="M75.6251 69.9204C75.7362 67.1677 78.0577 65.0263 80.8104 65.1373L77.162 155.564C74.3439 155.166 72.2854 152.698 72.4001 149.854L75.6251 69.9204Z" fill="url(#paint2_linear)"/>
<path opacity="0.75" d="M125.551 69.9246C125.452 67.1714 123.14 65.0199 120.387 65.1189L123.64 155.56C126.46 155.175 128.529 152.716 128.427 149.871L125.551 69.9246Z" fill="url(#paint3_linear)"/>
<path d="M0 143L100 140L200 143V184C200 192.837 192.837 200 184 200H16C7.16344 200 0 192.837 0 184V143Z" fill="#0F0F11"/>
<path d="M0 146.902C0 145.836 0.835116 144.958 1.89912 144.904L99 140V200H16C7.16344 200 0 192.837 0 184L0 146.902Z" fill="url(#paint4_linear)"/>
<path d="M200 146.902C200 145.836 199.165 144.958 198.101 144.904L101 140V200H184C192.837 200 200 192.837 200 184L200 146.902Z" fill="url(#paint5_linear)"/>
<path d="M100 140L0 145V143L100 140Z" fill="#1E4A61"/>
<path d="M100 140L200 145V143L100 140Z" fill="#3A2355"/>
<path d="M49 37C49 32.5817 52.5817 29 57 29H143C147.418 29 151 32.5817 151 37V112.416C151 116.241 148.293 119.531 144.539 120.267L101.539 128.698C100.523 128.897 99.4772 128.897 98.4607 128.698L55.4607 120.267C51.7073 119.531 49 116.241 49 112.416V37Z" fill="#0F0F11"/>
<path d="M151 37C151 32.5817 147.418 29 143 29L101 127L144.187 120.52C148.103 119.932 151 116.568 151 112.608V37Z" fill="url(#paint6_linear)"/>
<path d="M49 37C49 32.5817 52.5817 29 57 29L99 127L55.8128 120.52C51.8969 119.932 49 116.568 49 112.608V37Z" fill="url(#paint7_linear)"/>
<g filter="url(#filter1_f)">
<circle cx="77" cy="65" r="9" fill="white"/>
</g>
<circle cx="77" cy="65" r="9" stroke="url(#paint8_linear)" stroke-width="4"/>
<g filter="url(#filter2_f)">
<circle cx="123" cy="65" r="9" fill="white"/>
</g>
<circle cx="123" cy="65" r="9" stroke="url(#paint9_linear)" stroke-width="4"/>
</g>
<defs>
<filter id="filter0_f" x="9" y="138" width="182" height="13" filterUnits="userSpaceOnUse" color-interpolation-filters="sRGB">
<feFlood flood-opacity="0" result="BackgroundImageFix"/>
<feBlend mode="normal" in="SourceGraphic" in2="BackgroundImageFix" result="shape"/>
<feGaussianBlur stdDeviation="2.5" result="effect1_foregroundBlur"/>
</filter>
<filter id="filter1_f" x="64" y="52" width="26" height="26" filterUnits="userSpaceOnUse" color-interpolation-filters="sRGB">
<feFlood flood-opacity="0" result="BackgroundImageFix"/>
<feBlend mode="normal" in="SourceGraphic" in2="BackgroundImageFix" result="shape"/>
<feGaussianBlur stdDeviation="2" result="effect1_foregroundBlur"/>
</filter>
<filter id="filter2_f" x="110" y="52" width="26" height="26" filterUnits="userSpaceOnUse" color-interpolation-filters="sRGB">
<feFlood flood-opacity="0" result="BackgroundImageFix"/>
<feBlend mode="normal" in="SourceGraphic" in2="BackgroundImageFix" result="shape"/>
<feGaussianBlur stdDeviation="2" result="effect1_foregroundBlur"/>
</filter>
<linearGradient id="paint0_linear" x1="0" y1="100" x2="87.5" y2="84" gradientUnits="userSpaceOnUse">
<stop stop-color="#3ABABD"/>
<stop offset="1" stop-color="#121838" stop-opacity="0"/>
</linearGradient>
<linearGradient id="paint1_linear" x1="200" y1="100" x2="110" y2="84" gradientUnits="userSpaceOnUse">
<stop stop-color="#B846B2"/>
<stop offset="1" stop-color="#121838" stop-opacity="0"/>
</linearGradient>
<linearGradient id="paint2_linear" x1="74.0121" y1="109.9" x2="78.9963" y2="110.101" gradientUnits="userSpaceOnUse">
<stop stop-color="#3ABABD"/>
<stop offset="1" stop-color="#121838" stop-opacity="0"/>
</linearGradient>
<linearGradient id="paint3_linear" x1="126.989" y1="109.91" x2="122.004" y2="110.09" gradientUnits="userSpaceOnUse">
<stop stop-color="#B846B2"/>
<stop offset="1" stop-color="#121838" stop-opacity="0"/>
</linearGradient>
<linearGradient id="paint4_linear" x1="99" y1="172" x2="2.55448e-07" y2="172" gradientUnits="userSpaceOnUse">
<stop offset="0.210518" stop-color="#121838" stop-opacity="0"/>
<stop offset="1" stop-color="#3ABABD"/>
</linearGradient>
<linearGradient id="paint5_linear" x1="101" y1="172" x2="200" y2="172" gradientUnits="userSpaceOnUse">
<stop offset="0.210518" stop-color="#121838" stop-opacity="0"/>
<stop offset="1" stop-color="#B846B2"/>
</linearGradient>
<linearGradient id="paint6_linear" x1="151" y1="74.2486" x2="134" y2="72.5" gradientUnits="userSpaceOnUse">
<stop stop-color="#B846B2"/>
<stop offset="1" stop-color="#121838" stop-opacity="0"/>
</linearGradient>
<linearGradient id="paint7_linear" x1="49" y1="74.2486" x2="66" y2="72.5" gradientUnits="userSpaceOnUse">
<stop stop-color="#3ABABD"/>
<stop offset="1" stop-color="#121838" stop-opacity="0"/>
</linearGradient>
<linearGradient id="paint8_linear" x1="68" y1="56" x2="86" y2="74" gradientUnits="userSpaceOnUse">
<stop stop-color="#6FFBFF"/>
<stop offset="0.546875" stop-color="#A7FDFF" stop-opacity="0.25"/>
<stop offset="0.661458" stop-color="#FF96FC" stop-opacity="0.25"/>
<stop offset="1" stop-color="#FF72F9"/>
</linearGradient>
<linearGradient id="paint9_linear" x1="114" y1="56" x2="132" y2="74" gradientUnits="userSpaceOnUse">
<stop stop-color="#6FFBFF"/>
<stop offset="0.546875" stop-color="#A7FDFF" stop-opacity="0.25"/>
<stop offset="0.661458" stop-color="#FF96FC" stop-opacity="0.25"/>
<stop offset="1" stop-color="#FF72F9"/>
</linearGradient>
</defs>
</svg>
