<svg fill="none" height="22" viewBox="0 0 18 22" width="18" xmlns="http://www.w3.org/2000/svg"><path d="m16.9688.5h-15.93755c-.414844 0-.75.335156-.75.75v15.4688c0 .4148.335156.75.75.75h15.93755c.4148 0 .75-.3352.75-.75v-15.4688c0-.414844-.3352-.75-.75-.75zm-12.93755 6.1875c0-.77578.63047-1.40625 1.40625-1.40625s1.40625.63047 1.40625 1.40625-.63047 1.40625-1.40625 1.40625-1.40625-.63047-1.40625-1.40625zm8.71875 5.8125c0 .1031-.0844.1875-.1875.1875h-7.125c-.10313 0-.1875-.0844-.1875-.1875v-1.4062c0-.1032.08437-.1876.1875-.1876h7.125c.1031 0 .1875.0844.1875.1876zm-.1875-4.40625c-.7758 0-1.4063-.63047-1.4063-1.40625s.6305-1.40625 1.4063-1.40625 1.4063.63047 1.4063 1.40625-.6305 1.40625-1.4063 1.40625zm3.1641 11.15625h-13.45316c-.32344 0-.58594.3352-.58594.75v1.3125c0 .1031.06562.1875.14531.1875h14.33199c.0797 0 .1454-.0844.1454-.1875v-1.3125c.0023-.4148-.2602-.75-.5836-.75z" fill="#b80812"/></svg>