<svg fill="none" height="32" viewBox="0 0 32 32" width="32" xmlns="http://www.w3.org/2000/svg"><path d="m0 0h32v32h-32z" fill="#b80812"/><path d="m22.6406 7.25h-13.28122c-.34571 0-.625.2793-.625.625v12.8906c0 .3457.27929.625.625.625h13.28122c.3457 0 .625-.2793.625-.625v-12.8906c0-.3457-.2793-.625-.625-.625zm-10.7812 5.1562c0-.6464.5254-1.1718 1.1718-1.1718.6465 0 1.1719.5254 1.1719 1.1718 0 .6465-.5254 1.1719-1.1719 1.1719-.6464 0-1.1718-.5254-1.1718-1.1719zm7.2656 4.8438c0 .0859-.0703.1562-.1562.1562h-5.9376c-.0859 0-.1562-.0703-.1562-.1562v-1.1719c0-.0859.0703-.1562.1562-.1562h5.9376c.0859 0 .1562.0703.1562.1562zm-.1562-3.6719c-.6465 0-1.1719-.5254-1.1719-1.1719 0-.6464.5254-1.1718 1.1719-1.1718.6464 0 1.1718.5254 1.1718 1.1718 0 .6465-.5254 1.1719-1.1718 1.1719zm2.6367 9.2969h-11.211c-.2695 0-.48825.2793-.48825.625v1.0938c0 .0859.05469.1562.12105.1562h11.9434c.0664 0 .1211-.0703.1211-.1562v-1.0938c.002-.3457-.2168-.625-.4863-.625z" fill="#ffe7b7"/></svg>