<svg fill="none" height="32" viewBox="0 0 32 32" width="32" xmlns="http://www.w3.org/2000/svg"><path d="m0 0h32v32h-32z" fill="#b80812"/><path d="m22.875 20.375c0-2.1797-1.2773-4.0625-3.125-4.9395v-3.2382c0-.295-.1035-.5801-.2949-.8047l-2.9766-3.52932c-.125-.14844-.3027-.22266-.4785-.22266s-.3535.07422-.4785.22266l-2.9766 3.52932c-.1901.225-.2945.5101-.2949.8047v3.2382c-1.8477.877-3.125 2.7598-3.125 4.9395h3.0566c-.0449.1406-.0683.293-.0683.4648 0 .4317.1484.8536.4179 1.1875.2201.2732.5114.4801.8418.5977.4512 1.0547 1.4766 1.7344 2.627 1.7344.5684 0 1.1191-.168 1.5898-.4844.461-.3086.8184-.7402 1.0352-1.25.3303-.1169.6217-.3231.8418-.5957.2699-.337.4173-.7557.418-1.1875 0-.1641-.0215-.3203-.0606-.4648zm-6.875-7.5c.2453.005.4789.106.6506.2813.1718.1752.268.4108.268.6562s-.0962.481-.268.6562c-.1717.1753-.4053.2763-.6506.2813-.2453-.005-.4789-.106-.6506-.2813-.1718-.1752-.268-.4108-.268-.6562s.0962-.481.268-.6562c.1717-.1753.4053-.2763.6506-.2813zm2.2676 8.4414c-.1016.0586-.2188.082-.334.0664l-.3809-.0469-.0547.3789c-.1054.7403-.75 1.2989-1.498 1.2989s-1.3926-.5586-1.498-1.2989l-.0547-.3808-.3809.0488c-.1158.0138-.2329-.0102-.334-.0683-.1699-.0977-.2754-.2793-.2754-.4766 0-.207.1153-.3789.2852-.4649h4.5176c.1718.0879.2851.2598.2851.4649-.0019.1992-.1074.3828-.2773.4785z" fill="#ffe7b7"/></svg>